# xmcd
# Copyright (C) 1995-1998 Ti Kan
#
# Track frame offsets:
#       150
#       12075
#       24701
#       39957
#       53763
#       63553
#       75958
#       84776
#
# Disc length: 1359 seconds
#
# Revision: 0
# Processed by: cddbd v1.5.2PL0 Copyright (c) Steve Scherf et al.
# Submitted via: CD-Transfer v1.0
#
DISCID=4c054d08
DTITLE=Auner Alpenspektakel - 
DYEAR=1900
DGENRE=
TTITLE0=Auf Der Autobahn
TTITLE1=Rosamunde
TTITLE2=Holzhacker Stimmung
TTITLE3=Rote Rosen
TTITLE4=Wenn Ich Auf Hohen Bergen Steh
TTITLE5=Auf Der Pirsch
TTITLE6=Mit Schwung Und Heiterkeit
TTITLE7=Klarinetten Frühling
EXTD=
EXTT0=
EXTT1=
EXTT2=
EXTT3=
EXTT4=
EXTT5=
EXTT6=
EXTT7=
PLAYORDER=
